<svg width="44" height="48" viewBox="0 0 44 48" fill="none" xmlns="http://www.w3.org/2000/svg">
<ellipse cx="21.75" cy="24" rx="21.75" ry="24" fill="white"/>
<g clip-path="url(#clip0_10_899)">
<path d="M32.6758 21.3267L23.4345 21.3262C23.0265 21.3262 22.6957 21.6911 22.6957 22.1414V25.399C22.6957 25.8492 23.0265 26.2142 23.4345 26.2142H28.6386C28.0688 27.8461 27.0052 29.2127 25.6482 30.0811L27.8672 34.3198C31.4268 32.0482 33.5313 28.0624 33.5313 23.6006C33.5313 22.9653 33.4888 22.5111 33.404 21.9998C33.3394 21.6112 33.0338 21.3267 32.6758 21.3267Z" fill="#167EE6"/>
<path d="M22.2031 31.1087C19.6563 31.1087 17.433 29.5733 16.2389 27.3011L12.3977 29.7442C14.3525 33.4826 18.0144 36 22.2031 36C24.258 36 26.1969 35.3895 27.8672 34.3256V34.3198L25.6482 30.081C24.6331 30.7306 23.4585 31.1087 22.2031 31.1087Z" fill="#12B347"/>
<path d="M27.8672 34.3256V34.3198L25.6482 30.0811C24.6331 30.7306 23.4586 31.1087 22.2031 31.1087V36.0001C24.258 36.0001 26.197 35.3896 27.8672 34.3256Z" fill="#0F993E"/>
<path d="M15.3077 23.5C15.3077 22.1148 15.6503 20.8189 16.2389 19.6989L12.3977 17.2559C11.4282 19.0931 10.875 21.2268 10.875 23.5C10.875 25.7733 11.4282 27.907 12.3977 29.7442L16.2389 27.3012C15.6503 26.1812 15.3077 24.8853 15.3077 23.5Z" fill="#FFD500"/>
<path d="M22.2031 15.8913C23.8639 15.8913 25.3894 16.5425 26.5809 17.6256C26.8749 17.8928 27.3021 17.8735 27.5714 17.5764L29.6631 15.2683C29.9686 14.9312 29.9468 14.3794 29.6205 14.067C27.6241 12.1559 25.0266 11 22.2031 11C18.0144 11 14.3525 13.5174 12.3977 17.2558L16.2389 19.6989C17.433 17.4268 19.6563 15.8913 22.2031 15.8913Z" fill="#FF4B26"/>
<path d="M26.5809 17.6256C26.8749 17.8928 27.3022 17.8735 27.5714 17.5764L29.6631 15.2683C29.9686 14.9312 29.9468 14.3794 29.6205 14.067C27.6241 12.1559 25.0266 11 22.2031 11V15.8913C23.8638 15.8913 25.3894 16.5425 26.5809 17.6256Z" fill="#D93F21"/>
</g>
<defs>
<clipPath id="clip0_10_899">
<rect width="22.6562" height="25" fill="white" transform="translate(10.875 11)"/>
</clipPath>
</defs>
</svg>
