<svg width="45" height="48" viewBox="0 0 45 48" fill="none" xmlns="http://www.w3.org/2000/svg">
<ellipse cx="22.5" cy="24" rx="21.75" ry="24" fill="white"/>
<g clip-path="url(#clip0_10_908)">
<path d="M27.2002 11C25.9923 11.0922 24.5806 11.9453 23.7579 13.0562C23.0074 14.064 22.39 15.5609 22.6307 17.0156C23.9505 17.0609 25.3141 16.1875 26.1042 15.0578C26.8434 14.0062 27.4027 12.5187 27.2002 11Z" fill="black"/>
<path d="M31.9736 19.3875C30.8139 17.7828 29.184 16.8516 27.6448 16.8516C25.6129 16.8516 24.7534 17.925 23.3416 17.925C21.8859 17.925 20.78 16.8547 19.0228 16.8547C17.2967 16.8547 15.4587 18.0187 14.2933 20.0094C12.655 22.8125 12.9354 28.0827 15.5904 32.5718C16.5405 34.178 17.8093 35.9843 19.4688 35.9999C20.9457 36.0155 21.362 34.9546 23.3628 34.9436C25.3637 34.9311 25.7431 36.014 27.2172 35.9968C28.8782 35.9827 30.2163 33.9812 31.1665 32.3749C31.8476 31.2234 32.101 30.6437 32.6292 29.3437C28.7876 27.7296 28.1716 21.7015 31.9736 19.3875Z" fill="black"/>
</g>
<defs>
<clipPath id="clip0_10_908">
<rect width="22.6562" height="25" fill="white" transform="translate(11.625 11)"/>
</clipPath>
</defs>
</svg>
